#!OML:ASF F:\VICON\USERDATA\INSTALL\rory3\rory3.ASF
:FULLY-SPECIFIED
:DEGREES
33
root 0.486233 17.9704 -16.944 3.35994 0.445024 -4.2491
lowerback 13.4579 2.73835 5.53698
upperback -1.65202 4.63516 0.685194
thorax -8.96524 1.97209 -3.33931
lowerneck -17.8747 -5.16373 -2.89305
upperneck 10.7462 -7.34951 7.20114
head 6.57637 -3.05683 1.98438
rclavicle 4.27387e-015 -6.06293e-015
rhumerus -42.3552 15.8171 -99.5299
rradius 110.82
rwrist -16.5684
rhand -14.3354 37.7291
rfingers 7.12502
rthumb 11.8057 8.08188
lclavicle 4.27387e-015 -6.06293e-015
lhumerus -66.4238 0.675942 91.1342
lradius 107.271
lwrist 31.2503
lhand -21.5321 4.31892
lfingers 7.12502
lthumb 4.86058 34.2432
rfemur 10.6596 7.52944 33.4056
rtibia 57.1726
rfoot 22.7571 -9.91083
rtoes 16.5065
lfemur -32.1722 4.58809 -22.4973
ltibia 29.8217
lfoot -4.39827 -9.45268
ltoes -14.8449
34
root 0.449217 17.8547 -16.4766 2.7733 0.60152 -4.32878
lowerback 14.3097 2.60859 5.12883
upperback -1.38169 4.44264 0.762518
thorax -9.21116 1.89482 -3.03627
lowerneck -18.1735 -5.2186 -2.95281
upperneck 10.6051 -7.43763 7.47697
head 6.59983 -3.07415 2.06751
rclavicle -5.71506e-015 -2.18663e-015
rhumerus -42.6916 15.3671 -99.4836
rradius 109.483
rwrist -17.4184
rhand -12.7419 38.3363
rfingers 7.12502
rthumb 13.342 8.78343
lclavicle -5.71506e-015 -2.18663e-015
lhumerus -65.2206 0.499128 91.2716
lradius 106.842
lwrist 31.0942
lhand -21.3253 4.35744
lfingers 7.12502
lthumb 5.06027 34.277
rfemur 9.31761 6.75236 33.1858
rtibia 61.1924
rfoot 22.2964 -10.0286
rtoes 19.853
lfemur -32.1796 5.48028 -22.751
ltibia 31.8864
lfoot -4.49376 -11.453
ltoes -3.26367
35
root 0.425342 17.7981 -15.9781 2.28462 0.648674 -4.17568
lowerback 14.6981 2.59192 4.60741
upperback -1.0102 4.33049 0.716547
thorax -9.06753 1.87532 -2.7819
lowerneck -18.3686 -5.33628 -2.92087
upperneck 10.3976 -7.62621 7.73098
head 6.58626 -3.14196 2.11936
rclavicle 5.11933e-014 1.36167e-014
rhumerus -43.0823 14.7277 -99.3811
rradius 108.123
rwrist -17.0915
rhand -12.8799 38.2792
rfingers 7.12502
rthumb 13.2089 8.71763
lclavicle 5.11933e-014 1.36167e-014
lhumerus -63.7996 0.0585068 91.4477
lradius 106.348
lwrist 30.84
lhand -21.0136 3.96064
lfingers 7.12502
lthumb 5.36119 33.8728
rfemur 7.89323 5.97883 32.4389
rtibia 65.1285
rfoot 21.3137 -10.1423
rtoes 20.8849
lfemur -31.6672 6.2351 -23.08
ltibia 35.1002
lfoot -5.98652 -12.5579
ltoes -1.4116
36
root 0.4145 17.7139 -15.4584 2.07681 0.348388 -3.72146
lowerback 14.4224 2.76603 3.79212
upperback -0.726414 4.38169 0.583177
thorax -8.64365 1.95336 -2.45173
lowerneck -18.3009 -5.40036 -2.80876
upperneck 10.2326 -7.75458 7.89487
head 6.53296 -3.19114 2.14116
rclavicle -3.75206e-014 -1.01629e-014
rhumerus -43.6736 14.1153 -99.3856
rradius 106.689
rwrist -17.4036
rhand -13.3379 36.1201
rfingers 7.12502
rthumb 12.7675 6.53052
lclavicle -3.75206e-014 -1.01629e-014
lhumerus -62.5465 -0.677288 91.771
lradius 105.985
lwrist 30.4657
lhand -20.8763 3.77095
lfingers 7.12502
lthumb 5.49376 33.6797
rfemur 6.20699 5.46529 31.1561
rtibia 69.1485
rfoot 19.6729 -10.3053
rtoes 19.9321
lfemur -31.2128 6.79173 -23.6632
ltibia 38.3595
lfoot -7.28424 -12.2225
ltoes 7.58031
37
root 0.379861 17.5802 -15.0105 1.71323 0.510896 -3.73398
lowerback 15.2638 2.66697 3.32089
upperback -0.688654 4.20367 0.600785
thorax -9.1271 1.87407 -2.18205
lowerneck -18.3178 -5.36004 -2.74912
upperneck 10.1984 -7.75074 8.14311
head 6.53469 -3.16611 2.21164
rclavicle -2.5373e-014 1.50579e-014
rhumerus -44.2362 13.564 -99.6082
rradius 105.036
rwrist -18.1436
rhand -13.9616 36.6549
rfingers 7.12502
rthumb 12.1661 7.02865
lclavicle -2.5373e-014 1.50579e-014
lhumerus -61.4425 -1.34243 92.1011
lradius 105.83
lwrist 30.078
lhand -21.1753 4.06373
lfingers 7.12502
lthumb 5.2051 33.9798
rfemur 4.0954 4.47004 30.5829
rtibia 73.3167
rfoot 18.2172 -10.4982
rtoes 17.9878
lfemur -31.0188 6.98808 -23.699
ltibia 41.693
lfoot -10.8278 -12.0156
ltoes 6.18683
38
root 0.351415 17.482 -14.5467 1.37013 0.432406 -3.5491
lowerback 16.0432 2.58901 2.61674
upperback -0.542824 3.99086 0.579753
thorax -9.46774 1.79576 -1.80213
lowerneck -18.5697 -5.32022 -2.62516
upperneck 10.1627 -7.74759 8.30427
head 6.5681 -3.14006 2.23968
rclavicle 1.32565e-014 1.04362e-014
rhumerus -44.5503 12.9804 -99.617
rradius 103.304
rwrist -17.5842
rhand -13.7809 37.4122
rfingers 7.12502
rthumb 12.3404 7.79641
lclavicle 1.32565e-014 1.04362e-014
lhumerus -59.9787 -1.93598 92.3554
lradius 105.719
lwrist 30.0072
lhand -21.2756 4.05383
lfingers 7.12502
lthumb 5.10825 33.9723
rfemur 1.95402 3.66164 29.7039
rtibia 77.3151
rfoot 17.7371 -10.116
rtoes 18.1509
lfemur -30.4735 7.15613 -23.8645
ltibia 44.3717
lfoot -13.5059 -10.7248
ltoes 5.35601
39
root 0.341519 17.3895 -14.0606 0.957525 0.387367 -2.6701
lowerback 16.3614 2.52491 1.42408
upperback -0.134064 3.65542 0.370422
thorax -9.27286 1.69229 -1.28217
lowerneck -18.7129 -5.25505 -2.43483
upperneck 9.67195 -7.67356 8.36038
head 6.42539 -3.10291 2.23627
rclavicle 5.92627e-015 -1.44119e-014
rhumerus -44.6955 12.39 -99.4872
rradius 101.579
rwrist -16.7493
rhand -13.7721 38.8355
rfingers 7.12502
rthumb 12.3488 9.22018
lclavicle 5.92627e-015 -1.44119e-014
lhumerus -58.0736 -2.58453 92.6442
lradius 105.518
lwrist 30.3734
lhand -21.3257 3.50004
lfingers 7.12502
lthumb 5.0599 33.4196
rfemur 0.0781689 2.81591 27.8496
rtibia 81.1441
rfoot 17.2734 -9.26047
rtoes 17.7379
lfemur -29.4743 7.10859 -24.7996
ltibia 46.5789
lfoot -14.8081 -8.92958
ltoes 9.88183
40
root 0.33024 17.299 -13.5921 0.76154 0.358667 -1.64175
lowerback 16.7201 2.49016 0.106673
upperback 0.124181 3.32773 0.0899677
thorax -9.25856 1.58859 -0.773298
lowerneck -18.9178 -5.22372 -2.33795
upperneck 9.36903 -7.6541 8.52722
head 6.36531 -3.07948 2.27472
rclavicle 8.15017e-014 1.05356e-014
rhumerus -44.9993 11.743 -99.539
rradius 99.8372
rwrist -15.8888
rhand -14.9509 38.6157
rfingers 7.12502
rthumb 11.2121 8.93528
lclavicle 8.15017e-014 1.05356e-014
lhumerus -56.1326 -3.46877 92.9529
lradius 105.298
lwrist 31.0803
lhand -21.708 3.3613
lfingers 7.12502
lthumb 4.6907 33.2894
rfemur -2.37895 1.96664 25.8087
rtibia 84.9622
rfoot 16.2886 -8.48671
rtoes 16.9132
lfemur -28.3048 7.13857 -26.0382
ltibia 48.2462
lfoot -16.7559 -6.93023
ltoes 10.4292
41
root 0.31833 17.1965 -13.1418 0.98749 0.379544 -0.930876
lowerback 16.9805 2.37097 -0.839894
upperback 0.0638008 2.96327 -0.116865
thorax -9.51231 1.44996 -0.386396
lowerneck -19.2027 -5.20719 -2.40172
upperneck 9.53503 -7.65827 8.72095
head 6.47753 -3.05465 2.34092
rclavicle -5.34234e-015 -9.74045e-015
rhumerus -45.739 11.2455 -99.6464
rradius 98.4876
rwrist -14.8845
rhand -16.6045 37.2552
rfingers 7.12502
rthumb 9.61696 7.49468
lclavicle -5.34234e-015 -9.74045e-015
lhumerus -54.2824 -4.42917 93.2634
lradius 105.005
lwrist 31.9451
lhand -22.4883 3.60888
lfingers 7.12502
lthumb 3.93721 33.5523
rfemur -5.64438 1.09331 24.1978
rtibia 88.7375
rfoot 15.4373 -7.62432
rtoes 18.4993
lfemur -27.2377 7.07236 -26.9615
ltibia 49.544
lfoot -19.3437 -4.46899
ltoes 6.2358
42
root 0.307694 17.0858 -12.7018 1.19065 0.185617 0.0172161
lowerback 17.1064 2.40399 -1.96431
upperback 0.0622055 2.75015 -0.434965
thorax -9.62282 1.39189 -0.0473056
lowerneck -19.423 -5.22106 -2.42994
upperneck 9.61038 -7.71685 8.98794
head 6.55588 -3.0525 2.4203
rclavicle -2.98922e-014 -3.37934e-015
rhumerus -46.6179 10.4573 -99.6364
rradius 97.5098
rwrist -14.1509
rhand -16.8876 36.8545
rfingers 7.12502
rthumb 9.34381 7.08156
lclavicle -2.98922e-014 -3.37934e-015
lhumerus -52.2389 -5.81229 93.4983
lradius 104.752
lwrist 32.7848
lhand -23.4879 4.37377
lfingers 7.12502
lthumb 2.97193 34.3328
rfemur -8.98353 0.417284 22.3101
rtibia 92.3371
rfoot 14.7633 -6.44959
rtoes 14.5682
lfemur -25.9091 6.80098 -28.0078
ltibia 50.4723
lfoot -21.6574 -2.1745
ltoes 4.17345
43
root 0.298252 17.026 -12.2645 1.41406 0.244173 0.685103
lowerback 17.3874 2.23023 -2.82426
upperback 0.0501049 2.32709 -0.54393
thorax -9.81831 1.22845 0.41771
lowerneck -19.5456 -5.12028 -2.5791
upperneck 9.49817 -7.53977 9.04186
head 6.53711 -2.96898 2.48152
rclavicle 3.46631e-014 -2.10712e-014
rhumerus -47.5258 10.0831 -99.4948
rradius 96.7842
rwrist -13.8764
rhand -16.4206 37.0667
rfingers 7.12502
rthumb 9.7944 7.31446
lclavicle 3.46631e-014 -2.10712e-014
lhumerus -50.2301 -6.73211 93.7102
lradius 104.648
lwrist 33.2046
lhand -22.9707 4.80986
lfingers 7.12502
lthumb 3.47139 34.7613
rfemur -12.3149 -0.498522 20.8345
rtibia 95.3765
rfoot 13.9945 -5.50659
rtoes 17.71
lfemur -24.2774 6.30682 -28.609
ltibia 50.8903
lfoot -23.668 -0.993392
ltoes 4.79456
